<svg xmlns="http://www.w3.org/2000/svg" viewBox="0 0 32 32" width="32" height="32">
  <rect width="32" height="32" rx="8" fill="#0b8a4b"/>
  <path d="M9 18.5a1 1 0 0 1 1-1h12a1 1 0 0 1 1 1V24a2 2 0 0 1-2 2h-1.5v2.2a1.3 1.3 0 1 1-2.6 0V26h-2.8v2.2a1.3 1.3 0 1 1-2.6 0V26H11a2 2 0 0 1-2-2v-5.5Z" fill="#fff"/>
  <path d="M11.2 16.5a4.8 4.8 0 0 1 9.6 0H11.2Z" fill="#fff"/>
  <circle cx="13.8" cy="13.6" r="0.8" fill="#0b8a4b"/>
  <circle cx="18.2" cy="13.6" r="0.8" fill="#0b8a4b"/>
  <path d="M12 11l-1.4-1.7M20 11l1.4-1.7" stroke="#fff" stroke-width="1.1" stroke-linecap="round"/>
</svg>
